<svg width="466.000000" height="376.002441" viewBox="0 0 466 376.002" fill="none" xmlns="http://www.w3.org/2000/svg" xmlns:xlink="http://www.w3.org/1999/xlink">
	<defs/>
	<rect id="icon" rx="-0.500000" width="465.000000" height="375.000000" transform="translate(0.500000 0.500000)" fill="#FFFFFF" fill-opacity="0"/>
	<rect id="atom" rx="-0.500000" width="392.043640" height="179.627441" transform="translate(36.121094 195.875000)" fill="#FFFFFF" fill-opacity="0"/>
	<path id="Vector" d="M415.37 195.37L48.91 195.37C41.24 195.37 34.97 202 35.67 209.83C43.72 302.81 128.61 376 232.14 376C335.67 376 420.57 302.84 428.61 209.83C429.28 202 423.05 195.37 415.37 195.37Z" fill="#FF6633" fill-opacity="1.000000" fill-rule="nonzero"/>
	<path id="Vector" d="M167.14 60.93C163.07 60.93 159.03 59.1 156.39 55.59C143.06 38.02 117.74 27.09 90.32 27.09C62.9 27.09 37.58 38 24.25 55.59C19.74 61.55 11.25 62.69 5.32 58.16C-0.62 53.64 -1.76 45.12 2.76 39.19C21.37 14.64 54.09 0 90.32 0C126.55 0 159.27 14.64 177.91 39.19C182.42 45.15 181.26 53.64 175.34 58.16C172.87 60.04 170.01 60.93 167.14 60.93Z" fill="#414141" fill-opacity="1.000000" fill-rule="nonzero"/>
	<path id="Vector" d="M452.48 60.93C448.41 60.93 444.36 59.1 441.72 55.59C428.39 38.02 403.07 27.09 375.66 27.09C348.24 27.09 322.92 38 309.59 55.59C305.07 61.55 296.59 62.69 290.66 58.16C284.71 53.64 283.58 45.12 288.09 39.19C306.7 14.64 339.43 0 375.66 0C411.88 0 444.61 14.64 463.24 39.19C467.76 45.15 466.6 53.64 460.68 58.16C458.21 60.04 455.34 60.93 452.48 60.93Z" fill="#414141" fill-opacity="1.000000" fill-rule="nonzero"/>
</svg>
